{
  "accessors": [
    {
      "bufferView": 2,
      "componentType": 5126,
      "count": 27591,
      "max": [
        0.4647890031337738,
        1.0,
        0.5498859882354736
      ],
      "min": [
        -0.4647890031337738,
        -1.0,
        -0.5498859882354736
      ],
      "type": "VEC3"
    },
    {
      "bufferView": 2,
      "byteOffset": 331092,
      "componentType": 5126,
      "count": 27591,
      "max": [
        0.9999936819076538,
        0.9999498724937439,
        0.9998629689216614
      ],
      "min": [
        -0.9999870657920837,
        -0.9994198083877563,
        -0.9999999403953552
      ],
      "type": "VEC3"
    },
    {
      "bufferView": 1,
      "componentType": 5126,
      "count": 27591,
      "max": [
        0.99951171875,
        0.9995980262756348
      ],
      "min": [
        0.0004830360412597656,
        0.00048828125
      ],
      "type": "VEC2"
    },
    {
      "bufferView": 0,
      "componentType": 5125,
      "count": 149997,
      "type": "SCALAR"
    }
  ],
  "asset": {
    "extras": {
      "author": "Jungle Jim (https://sketchfab.com/jungle_jim)",
      "license": "CC-BY-4.0 (http://creativecommons.org/licenses/by/4.0/)",
      "source": "https://sketchfab.com/3d-models/snail-dbf11eaef4574ad8ad8b1b3e57d33bf9",
      "title": "Snail"
    },
    "generator": "Sketchfab-16.31.0",
    "version": "2.0"
  },
  "bufferViews": [
    {
      "buffer": 0,
      "byteLength": 599988,
      "name": "floatBufferViews",
      "target": 34963
    },
    {
      "buffer": 0,
      "byteLength": 220728,
      "byteOffset": 599988,
      "byteStride": 8,
      "name": "floatBufferViews",
      "target": 34962
    },
    {
      "buffer": 0,
      "byteLength": 662184,
      "byteOffset": 820716,
      "byteStride": 12,
      "name": "floatBufferViews",
      "target": 34962
    }
  ],
  "buffers": [
    {
      "byteLength": 1482900,
      "uri": "scene.bin"
    }
  ],
  "extensionsUsed": [
    "KHR_materials_clearcoat"
  ],
  "images": [
    {
      "uri": "textures/Material_0_baseColor.jpeg"
    }
  ],
  "materials": [
    {
      "doubleSided": true,
      "extensions": {
        "KHR_materials_clearcoat": {
          "clearcoatFactor": 0.4857666273649742,
          "clearcoatRoughnessFactor": 0.04
        }
      },
      "name": "Material_0",
      "pbrMetallicRoughness": {
        "baseColorTexture": {
          "index": 0
        },
        "metallicFactor": 0.4918756987250368,
        "roughnessFactor": 0.7830325124777783
      }
    }
  ],
  "meshes": [
    {
      "name": "Mesh_0_Material_0_0",
      "primitives": [
        {
          "attributes": {
            "NORMAL": 1,
            "POSITION": 0,
            "TEXCOORD_0": 2
          },
          "indices": 3,
          "material": 0,
          "mode": 4
        }
      ]
    }
  ],
  "nodes": [
    {
      "children": [
        1
      ],
      "matrix": [
        1.0,
        0.0,
        0.0,
        0.0,
        0.0,
        2.220446049250313e-16,
        -1.0,
        0.0,
        0.0,
        1.0,
        2.220446049250313e-16,
        0.0,
        0.0,
        0.0,
        0.0,
        1.0
      ],
      "name": "Sketchfab_model"
    },
    {
      "children": [
        2
      ],
      "matrix": [
        0.009999999776482582,
        0.0,
        0.0,
        0.0,
        0.0,
        0.0,
        0.009999999776482582,
        0.0,
        0.0,
        -0.009999999776482582,
        0.0,
        0.0,
        0.0,
        0.0,
        0.0,
        1.0
      ],
      "name": "Snail.fbx"
    },
    {
      "children": [
        3
      ],
      "name": "RootNode"
    },
    {
      "children": [
        4
      ],
      "matrix": [
        100.0,
        0.0,
        0.0,
        0.0,
        0.0,
        -4.371139006309477e-06,
        -99.9999999999999,
        0.0,
        0.0,
        99.9999999999999,
        -4.371139006309477e-06,
        0.0,
        0.0,
        0.0,
        0.0,
        1.0
      ],
      "name": "Mesh_0"
    },
    {
      "mesh": 0,
      "name": "Mesh_0_Material_0_0"
    }
  ],
  "samplers": [
    {
      "magFilter": 9729,
      "minFilter": 9987,
      "wrapS": 10497,
      "wrapT": 10497
    }
  ],
  "scene": 0,
  "scenes": [
    {
      "name": "Sketchfab_Scene",
      "nodes": [
        0
      ]
    }
  ],
  "textures": [
    {
      "sampler": 0,
      "source": 0
    }
  ]
}
